<svg viewBox="0 0 24 24" xmlns="http://www.w3.org/2000/svg">
<path fill="#4285F4" d="M23.49 12.27c0-.85-.07-1.47-.22-2.11H12.24v3.82h6.45c-.13.95-.84 2.38-2.42 3.35l-.02.12 3.51 2.72.24.02c2.2-2.03 3.49-5.01 3.49-8.92z"/><path fill="#34A853" d="M12.24 23.5c3.17 0 5.83-1.04 7.78-2.84l-3.71-2.87c-1 .68-2.34 1.16-4.07 1.16-3.11 0-5.75-2.03-6.69-4.85l-.11.01-3.63 2.81-.05.11c1.93 3.83 5.9 6.47 10.48 6.47z"/><path fill="#FBBC05" d="M5.55 13.1c-.23-.68-.36-1.4-.36-2.15 0-.75.13-1.47.35-2.15l-.01-.14-3.67-2.85-.12.06C.93 7.19.5 8.8.5 10.95c0 2.16.44 3.77 1.23 5.08l3.82-2.93z"/><path fill="#EA4335" d="M12.24 4.86c2.2 0 3.68.95 4.53 1.74l3.31-3.22C18.06 1.21 15.4.5 12.24.5 7.66.5 3.69 3.14 1.76 6.97l3.79 2.98c.95-2.82 3.59-5.09 6.69-5.09z"/></svg>